<?xml version="1.0" encoding="UTF-8"?>
<svg width="21px" height="21px" viewBox="0 0 21 21" version="1.1" xmlns="http://www.w3.org/2000/svg" xmlns:xlink="http://www.w3.org/1999/xlink">
    <title>C82C55AE-8542-4997-928E-019EA5992E9A</title>
    <g id="UI" stroke="none" stroke-width="1" fill="none" fill-rule="evenodd">
        <g id="Styleguide" transform="translate(-531.000000, -13517.000000)" stroke="#6D6D6D" stroke-width="1.5">
            <g id="Group-45-Copy" transform="translate(512.000000, 13077.000000)">
                <g id="Group-45" transform="translate(-219.000000, 26.000000)">
                    <path d="M255.651442,422.221295 L252.510423,422.221295 C251.461053,422.221295 250.915097,421.668249 250.915097,420.987576 L250.915097,417.48495 C250.942963,416.317034 250.14109,415.292419 249.000707,415.038784 C248.315296,414.912834 247.609307,415.097052 247.072824,415.541841 C246.536341,415.986629 246.224512,416.646265 246.221295,417.343144 L246.221295,420.987576 C246.221295,421.66894 245.66894,422.221295 244.987576,422.221295 L241.48495,422.221295 C240.317034,422.19343 239.292419,422.995302 239.038784,424.135686 C238.912834,424.821096 239.097052,425.527085 239.541841,426.063568 C239.986629,426.600051 240.646265,426.91188 241.343144,426.915097 L244.987576,426.915097 C245.66894,426.915097 246.221295,427.467452 246.221295,428.148816 L246.221295,431.651442 C246.19343,432.819358 246.995302,433.843973 248.135686,434.097608 C248.821096,434.223559 249.527085,434.03934 250.063568,433.594551 C250.600051,433.149763 250.91188,432.490128 250.915097,431.793249 L250.915097,428.148816 C250.915097,427.467452 251.467452,426.915097 252.148816,426.915097 L255.793249,426.915097 C256.490128,426.91188 257.149763,426.600051 257.594551,426.063568 C258.03934,425.527085 258.223559,424.821096 258.097608,424.135686 C257.846485,422.993719 256.820291,422.19061 255.651442,422.221295 Z" id="Path"></path>
                </g>
            </g>
        </g>
    </g>
</svg>