<?xml version="1.0" encoding="UTF-8"?>
<svg width="21px" height="24px" viewBox="0 0 21 24" version="1.1" xmlns="http://www.w3.org/2000/svg" xmlns:xlink="http://www.w3.org/1999/xlink">
    <title>0C26BEB8-495C-46B3-98A1-5318904B5C20</title>
    <g id="UI" stroke="none" stroke-width="1" fill="none" fill-rule="evenodd" stroke-linecap="round">
        <g id="Styleguide" transform="translate(-531.000000, -13315.000000)" stroke="#6D6D6D" stroke-width="1.5">
            <g id="Group-45-Copy" transform="translate(512.000000, 13077.000000)">
                <g id="Group-45" transform="translate(-219.000000, 26.000000)">
                    <g id="Clients-icon" transform="translate(239.000000, 213.000000)">
                        <path d="M14.175,12.66 L15.4425,15.2325 C15.4800172,15.3137499 15.5563436,15.370288 15.645,15.3825 L18.4875,15.795 C18.5879679,15.8105041 18.671212,15.8811251 18.7028833,15.9777227 C18.7345546,16.0743203 18.7092845,16.1805197 18.6375,16.2525 L16.5825,18.255 C16.5155859,18.3155083 16.4844318,18.4061385 16.5,18.495 L16.9875,21.3225 C17.0045657,21.4233535 16.9631746,21.5251915 16.8805888,21.5855426 C16.798003,21.6458938 16.6884042,21.6543947 16.5975,21.6075 L14.055,20.2725 C13.9784232,20.2282884 13.8840768,20.2282884 13.8075,20.2725 L11.25,21.5925 C11.1590958,21.6393947 11.049497,21.6308938 10.9669112,21.5705426 C10.8843254,21.5101915 10.8429343,21.4083535 10.86,21.3075 L11.3475,18.48 C11.3630682,18.3911385 11.3319141,18.3005083 11.265,18.24 L9.21,16.2375 C9.13821552,16.1655197 9.11294535,16.0593203 9.1446167,15.9627227 C9.17628805,15.8661251 9.25953211,15.7955041 9.36,15.78 L12.2025,15.3675 C12.2911564,15.355288 12.3674828,15.2987499 12.405,15.2175 L13.6875,12.66 C13.7322838,12.5660005 13.8271275,12.506129 13.93125,12.506129 C14.0353725,12.506129 14.1302162,12.5660005 14.175,12.66 L14.175,12.66 Z" id="Path"></path>
                        <circle id="Oval" cx="7.395" cy="3.9075" r="3.9075"></circle>
                        <path d="M-2.99760217e-13,19.0125 L1.125,12.2625 C1.34851347,11.0756685 2.38480518,10.2157668 3.5925,10.215 L11.505,10.215 C12.7126948,10.2157668 13.7489865,11.0756685 13.9725,12.2625" id="Path"></path>
                    </g>
                </g>
            </g>
        </g>
    </g>
</svg>