<?xml version="1.0" encoding="UTF-8"?>
<svg width="23px" height="18px" viewBox="0 0 23 18" version="1.1" xmlns="http://www.w3.org/2000/svg" xmlns:xlink="http://www.w3.org/1999/xlink">
    <title>EEBFA272-9DA6-4FCD-942F-2E3B00FCED68</title>
    <g id="UI" stroke="none" stroke-width="1" fill="none" fill-rule="evenodd">
        <g id="Styleguide" transform="translate(-530.000000, -13398.000000)" stroke="#6D6D6D" stroke-width="1.5">
            <g id="Group-45-Copy" transform="translate(512.000000, 13077.000000)">
                <g id="Group-45" transform="translate(-219.000000, 26.000000)">
                    <g id="VOD-icon" transform="translate(238.000000, 296.000000)">
                        <rect id="Rectangle" x="-2.61228947e-14" y="6.4262321e-13" width="21.0147059" height="16.2352941" rx="4"></rect>
                        <path d="M13.9117647,7.19117647 C14.2447179,7.38079208 14.4503196,7.73448664 14.4503196,8.11764706 C14.4503196,8.50080748 14.2447179,8.85450204 13.9117647,9.04411765 L11.3088235,10.5514706 L8.69852941,12.0220588 C8.36680543,12.2153833 7.95675512,12.2154167 7.62499965,12.0221463 C7.29324418,11.8288759 7.09102779,11.472155 7.09558824,11.0882353 L7.09558824,5.11029412 C7.09369534,4.72768598 7.29696455,4.37339926 7.62822637,4.181936 C7.95948819,3.99047275 8.36794496,3.99119308 8.69852941,4.18382353 L11.3088235,5.69117647 L13.9117647,7.19117647 Z" id="Path"></path>
                    </g>
                </g>
            </g>
        </g>
    </g>
</svg>