<?xml version="1.0" encoding="UTF-8"?>
<svg width="23px" height="23px" viewBox="0 0 23 23" version="1.1" xmlns="http://www.w3.org/2000/svg" xmlns:xlink="http://www.w3.org/1999/xlink">
    <title>EC97E500-4904-40BE-B705-CA936999242C</title>
    <g id="UI" stroke="none" stroke-width="1" fill="none" fill-rule="evenodd">
        <g id="Styleguide" transform="translate(-530.000000, -13275.000000)">
            <g id="Group-45-Copy" transform="translate(512.000000, 13077.000000)">
                <g id="Group-45" transform="translate(-219.000000, 26.000000)">
                    <g id="Messages-icon" transform="translate(238.000000, 173.000000)">
                        <path d="M15.3971148,3.70588235 L1.94123242,3.70588235 C0.869150257,3.70588235 -2.35106052e-14,4.57497666 -2.35106052e-14,5.64705882 L-2.35106052e-14,19.9485294 C-0.00277038045,20.1379333 0.101678814,20.3126714 0.269841707,20.399867 C0.438004599,20.4870625 0.641002873,20.4717417 0.794173595,20.3602941 L6.16182065,16.5661765 C6.59164248,16.2620399 7.10587538,16.1000565 7.63240889,16.1029412 L15.3971148,16.1029412 C16.466332,16.1029488 17.3342412,15.2383272 17.3382912,14.1691176 L17.3382912,5.64705882 C17.3382912,5.13222681 17.133775,4.63848098 16.7697338,4.27443978 C16.4056926,3.91039857 15.9119468,3.70588235 15.3971148,3.70588235 Z" id="Path" stroke="#6D6D6D" stroke-width="1.5"></path>
                        <path d="M17.2279971,12.3970589 L18.9338795,12.3970589 C19.9917667,12.3972486 20.8550202,11.5503446 20.8750559,10.4926471 L20.8750559,1.94117647 C20.8750559,0.869094309 20.0059616,-1.6117826e-12 18.9338795,-1.6117826e-12 L5.48535007,-1.6117826e-12 C4.41614052,0.00405006517 3.55152654,0.871959259 3.55152654,1.94117647 L3.55152654,3.70588235" id="Path" stroke="#6D6D6D" stroke-width="1.5"></path>
                        <circle id="Oval" fill="#6D6D6D" fill-rule="nonzero" cx="4.52946771" cy="9.91176471" r="1.13970588"></circle>
                        <circle id="Oval" fill="#6D6D6D" fill-rule="nonzero" cx="8.66917359" cy="9.91176471" r="1.13970588"></circle>
                        <circle id="Oval" fill="#6D6D6D" fill-rule="nonzero" cx="12.8162324" cy="9.91176471" r="1.13970588"></circle>
                    </g>
                </g>
            </g>
        </g>
    </g>
</svg>