<?xml version="1.0" encoding="UTF-8"?>
<svg width="26px" height="20px" viewBox="0 0 26 20" version="1.1" xmlns="http://www.w3.org/2000/svg" xmlns:xlink="http://www.w3.org/1999/xlink">
    <title>C899C9D3-72C1-4735-9F53-34FE0BD62EDC</title>
    <g id="UI" stroke="none" stroke-width="1" fill="none" fill-rule="evenodd">
        <g id="Styleguide" transform="translate(-529.000000, -13437.000000)" stroke="#3CFF8F" stroke-width="1.5">
            <g id="Group-45-Copy" transform="translate(512.000000, 13077.000000)">
                <g id="Group-45" transform="translate(-219.000000, 26.000000)">
                    <g id="Group-64" transform="translate(237.000000, 335.000000)">
                        <rect id="Rectangle" x="3.23296945e-13" y="0" width="17.5441176" height="4" rx="1.53"></rect>
                        <path d="M8.72538372,6.69932732 L22.4962661,6.69932732 C23.3412617,6.69932732 24.0262661,7.38433165 24.0262661,8.22932732 L24.0262661,9.52226849 C24.0262661,10.3672642 23.3412617,11.0522685 22.4962661,11.0522685 L8.72538372,11.0522685 C7.88038806,11.0522685 7.19538372,10.3672642 7.19538372,9.52226849 L7.19538372,8.22932732 C7.19538372,7.38433165 7.88038806,6.69932732 8.72538372,6.69932732 Z" id="Rectangle" stroke-dasharray="1.019999980926513" transform="translate(15.610825, 8.875798) rotate(-5.100000) translate(-15.610825, -8.875798) "></path>
                        <rect id="Rectangle" x="3.23296945e-13" y="14.2279412" width="17.5441176" height="4" rx="1.53"></rect>
                    </g>
                </g>
            </g>
        </g>
    </g>
</svg>