<?xml version="1.0" encoding="UTF-8"?>
<svg width="18px" height="23px" viewBox="0 0 18 23" version="1.1" xmlns="http://www.w3.org/2000/svg" xmlns:xlink="http://www.w3.org/1999/xlink">
    <title>79901F6C-BB62-49FE-BBFE-DF55A6D1924E</title>
    <g id="UI" stroke="none" stroke-width="1" fill="none" fill-rule="evenodd">
        <g id="Sign-UP" transform="translate(-830.000000, -612.000000)" fill="#EDEDED" fill-rule="nonzero">
            <g id="Group-7" transform="translate(672.000000, 603.000000)">
                <g id="Group-3" transform="translate(146.000000, 0.000000)">
                    <g id="apple-seeklogo.com" transform="translate(12.000000, 9.000000)">
                        <path d="M15.0330511,11.7443632 C15.0641156,15.0897407 17.9678308,16.2029981 18,16.2172074 C17.9754477,16.2957204 17.5360347,17.8037081 16.4701849,19.3613517 C15.5488046,20.7080134 14.5925334,22.0497422 13.0861237,22.0775305 C11.6059255,22.1048045 11.1299591,21.1997692 9.43767352,21.1997692 C7.74589908,21.1997692 7.21707884,22.0497399 5.81590635,22.1048045 C4.3618388,22.1598288 3.25458162,20.6485682 2.32554431,19.3068395 C0.427169051,16.5622883 -1.02358244,11.5513824 0.924410109,8.1689393 C1.89213125,6.48920428 3.62152207,5.42552594 5.49862119,5.39824989 C6.92647836,5.37101336 8.27420583,6.35886458 9.14707301,6.35886458 C10.0193868,6.35886458 11.6571625,5.17088692 13.3788956,5.34535646 C14.099672,5.37535586 16.122903,5.6365093 17.4220752,7.53816016 C17.3173939,7.60305466 15.0079465,8.94750504 15.0330511,11.7443663 M12.2511897,3.52959633 C13.0231639,2.59515224 13.542747,1.29431966 13.4009992,2.0783375e-14 C12.2882563,0.0447222814 10.9427002,0.741500923 10.1445545,1.6754309 C9.42926273,2.50246939 8.80282793,3.82619725 8.97185088,5.09489952 C10.2121334,5.19085851 11.4791775,4.46463465 12.2511897,3.52959784" id="Shape"></path>
                    </g>
                </g>
            </g>
        </g>
    </g>
</svg>