<?xml version="1.0" encoding="UTF-8"?>
<svg width="30px" height="30px" viewBox="0 0 30 30" version="1.1" xmlns="http://www.w3.org/2000/svg" xmlns:xlink="http://www.w3.org/1999/xlink">
    <title>2533539C-9F21-465C-AC69-6B3591F47A77</title>
    <g id="UI" stroke="none" stroke-width="1" fill="none" fill-rule="evenodd">
        <g id="Builder---New-Workout-1" transform="translate(-15.000000, -19.000000)" fill="#3CFF8F" fill-rule="nonzero">
            <g id="Group-7" transform="translate(15.000000, 19.000000)">
                <path d="M19.589929,30 L19.589929,14.0969712 C19.5878678,12.0616068 17.9383932,10.4121322 15.9030288,10.410071 L1.05238017e-13,10.410071 L1.05238017e-13,2.61747476 L7.1307491,2.61747476 C9.82600303,2.62243467 12.4087451,3.6985772 14.3101084,5.60887449 L24.4060825,15.7048486 C26.3163798,17.6062119 27.3925223,20.188954 27.3974822,22.8842079 L27.3974822,30 L19.589929,30 Z" id="Path"></path>
                <path d="M11.9655989,30 L11.9655989,20.2779509 C11.9655989,19.0388726 10.9611274,18.0344011 9.72204911,18.0344011 L2.10476034e-14,18.0344011 L2.10476034e-14,13.2892933 L4.3524866,13.2892933 C5.99766617,13.2894721 7.57539822,13.9431616 8.73862645,15.1065686 L14.8934314,21.2613736 C16.0568384,22.4246018 16.7105279,24.0023338 16.7107067,25.6475134 L16.7107067,30 L11.9655989,30 Z" id="Path"></path>
                <circle id="Oval" cx="24.6266982" cy="5.37330176" r="5.37330176"></circle>
            </g>
        </g>
    </g>
</svg>