<?xml version="1.0" encoding="UTF-8"?>
<svg width="300px" height="67px" viewBox="0 0 300 67" version="1.1" xmlns="http://www.w3.org/2000/svg" xmlns:xlink="http://www.w3.org/1999/xlink">
    <title>3701D4FB-E15F-4E01-9AD8-13466385BE30</title>
    <g id="UI" stroke="none" stroke-width="1" fill="none" fill-rule="evenodd">
        <g id="Styleguide" transform="translate(-532.000000, -345.000000)" fill-rule="nonzero">
            <g id="Group" transform="translate(532.000000, 345.000000)">
                <path d="M40.8101266,62.496592 L40.8101266,29.3670886 C40.8058328,25.1269774 37.3696146,21.6907592 33.1295034,21.6864654 L-6.74565888e-15,21.6864654 L-6.74565888e-15,5.45277507 L14.8549172,5.45277507 C20.4697234,5.46310766 25.8501426,7.704949 29.8111003,11.684518 L50.8432327,32.7166504 C54.8228017,36.6776081 57.0646431,42.0580273 57.0749757,47.6728335 L57.0749757,62.496592 L40.8101266,62.496592 Z" id="Path" fill="#3CFF8F"></path>
                <path d="M24.9269718,62.496592 L24.9269718,42.2434275 C24.9269718,39.662155 22.834437,37.5696203 20.2531646,37.5696203 L0,37.5696203 L0,27.684518 L9.06718598,27.684518 C12.4944565,27.6848905 15.7812191,29.0466693 18.2044791,31.4703019 L31.0262902,44.292113 C33.4499227,46.715373 34.8117015,50.0021355 34.812074,53.429406 L34.812074,62.496592 L24.9269718,62.496592 Z" id="Path" fill="#3CFF8F"></path>
                <circle id="Oval" fill="#3CFF8F" cx="51.3028238" cy="11.1937683" r="11.1937683"></circle>
                <path d="M139.384615,23.8987342 C131.822221,23.9157554 125.689911,30.0306736 125.651412,37.5929893 L125.651412,37.6319377 C125.651412,38.037001 125.651412,38.4109056 125.713729,38.8237585 C125.776047,39.2366115 125.791626,39.4780915 125.846154,39.805258 C125.849993,39.8310817 125.849993,39.8573311 125.846154,39.8831548 L125.846154,39.8831548 C126.863814,46.0215216 131.887623,50.7048553 138.082206,51.2899398 C144.276789,51.8750244 150.088625,48.2151283 152.237585,42.375852 L147.166504,42.375852 C145.264372,45.5331177 141.648995,47.2353155 138.003585,46.6899527 C134.358175,46.1445898 131.399244,43.4588582 130.504382,39.8831548 L152.868549,39.8831548 C153.795521,29.9279455 146.932814,23.8987342 139.384615,23.8987342 Z M130.519961,35.3106134 C131.571358,31.27569 135.214958,28.4598505 139.384615,28.4598505 C143.554273,28.4598505 147.197873,31.27569 148.24927,35.3106134 L130.519961,35.3106134 Z" id="Shape" fill="#FFFFFF"></path>
                <path d="M201.850049,23.8987342 C194.285893,23.9115063 188.1511,30.0289002 188.116845,37.5929893 L188.116845,37.6319377 C188.116845,38.037001 188.116845,38.4109056 188.179163,38.8237585 C188.24148,39.2366115 188.257059,39.4780915 188.311587,39.805258 C188.307748,39.8310817 188.307748,39.8573311 188.311587,39.8831548 L188.311587,39.8831548 C189.323528,46.0281985 194.350204,50.719156 200.550433,51.3046011 C206.750662,51.8900461 212.566538,48.2228763 214.710808,42.375852 L209.639727,42.375852 C207.734813,45.5314178 204.1192,47.2319239 200.473772,46.6868131 C196.828343,46.1417023 193.868325,43.4579242 192.969815,39.8831548 L215.333982,39.8831548 C216.229796,29.9279455 209.374878,23.8987342 201.850049,23.8987342 Z M192.962025,35.3106134 C194.018748,31.2830047 197.658857,28.4747463 201.822785,28.4747463 C205.986713,28.4747463 209.626822,31.2830047 210.683544,35.3106134 L192.962025,35.3106134 Z" id="Shape" fill="#FFFFFF"></path>
                <path d="M103.980526,35.3339825 L103.980526,51.3573515 L108.553067,51.3573515 L108.553067,35.3339825 C108.557288,31.5577092 111.6084,28.4926807 115.384615,28.4712756 L123.446933,28.4712756 L123.446933,23.8987342 L115.384615,23.8987342 C109.084832,23.924442 103.989045,29.0341523 103.980526,35.3339825 Z" id="Path" fill="#FFFFFF"></path>
                <path d="M85.7838364,39.9221032 L85.7838364,28.4712756 L92.5842259,28.4712756 L92.5842259,23.8987342 L85.7838364,23.8987342 L85.7838364,15.8987342 L81.211295,15.8987342 L81.211295,39.9221032 C81.2198655,46.2310233 86.3298408,51.344482 92.6387537,51.3573515 L99.563778,51.3573515 L99.563778,46.7925998 L92.6387537,46.7925998 C88.8521483,46.7797371 85.7881029,43.7087281 85.7838364,39.9221032 L85.7838364,39.9221032 Z" id="Path" fill="#FFFFFF"></path>
                <path d="M219.890944,35.3339825 L219.890944,51.2950341 L224.440117,51.2950341 L224.440117,35.3339825 C224.44441,31.5455937 227.514435,28.4755684 231.302824,28.4712756 L239.365141,28.4712756 L239.365141,23.8987342 L231.326193,23.8987342 C225.014238,23.907316 219.899526,29.0220274 219.890944,35.3339825 Z" id="Path" fill="#FFFFFF"></path>
                <path d="M172.202532,23.8987342 L168.455696,23.8987342 C162.143741,23.907316 157.02903,29.0220274 157.020448,35.3339825 L157.020448,51.2950341 L161.5852,51.2950341 L161.5852,35.3339825 C161.593781,31.544334 164.66604,28.4755576 168.455696,28.4712756 L172.202532,28.4712756 C175.99092,28.4755684 179.060946,31.5455937 179.065239,35.3339825 L179.065239,51.2950341 L183.63778,51.2950341 L183.63778,35.3339825 C183.629198,29.0220274 178.514487,23.907316 172.202532,23.8987342 Z" id="Path" fill="#FFFFFF"></path>
                <path d="M286.243427,23.8987319 C278.661844,23.9116354 272.525005,30.065901 272.533593,37.6474905 C272.542199,45.2290801 278.69298,51.3694122 286.274573,51.3651214 C293.856166,51.360826 300,45.2135321 300,37.6319377 C299.9914,30.041737 293.833632,23.8944289 286.243427,23.8987319 Z M286.243427,46.7925998 C281.184133,46.7925998 277.082765,42.6912317 277.082765,37.6319377 C277.082765,32.5726437 281.184133,28.4712756 286.243427,28.4712756 C291.302721,28.4712756 295.40409,32.5726437 295.40409,37.6319377 C295.399794,42.6894515 291.300941,46.7883047 286.243427,46.7925998 L286.243427,46.7925998 Z" id="Shape" fill="#FFFFFF"></path>
                <path d="M268.062317,37.6319377 L268.062317,36.7594937 L268.015579,36.7594937 C267.619608,30.3600841 262.852906,25.0839386 256.526416,24.0424196 C250.199927,23.0009006 243.993421,26.4705462 241.566898,32.4052935 C239.140376,38.3400408 241.138113,45.1641305 246.382037,48.8533718 C251.625961,52.542613 258.723735,52.11746 263.489776,47.8286271 L263.489776,52.5024343 C263.489776,57.5617283 259.388408,61.6630964 254.329114,61.6630964 C249.26982,61.6630964 245.168452,57.5617283 245.168452,52.5024343 L240.59591,52.5024343 C240.595911,60.0870728 246.744475,66.235637 254.329114,66.235637 C261.913752,66.235637 268.062317,60.0870728 268.062317,52.5024343 L268.062317,37.7020448 L268.062317,37.6319377 Z M254.290166,46.7925998 C250.585024,46.7925998 247.244714,44.5606761 245.826817,41.1375713 C244.408921,37.7144665 245.192668,33.7743024 247.812599,31.1543714 C250.43253,28.5344404 254.372694,27.750693 257.795799,29.1685894 C261.218904,30.5864859 263.450828,33.9267957 263.450828,37.6319377 C263.446533,42.6894515 259.347679,46.7883047 254.290166,46.7925998 L254.290166,46.7925998 Z" id="Shape" fill="#FFFFFF"></path>
            </g>
        </g>
    </g>
</svg>